<?xml version="1.0" standalone="no"?>
<!DOCTYPE svg PUBLIC "-//W3C//DTD SVG 20010904//EN"
 "http://www.w3.org/TR/2001/REC-SVG-20010904/DTD/svg10.dtd">
<svg version="1.0" xmlns="http://www.w3.org/2000/svg"
 width="1020.000000pt" height="1280.000000pt" viewBox="0 0 1020.000000 1280.000000"
 preserveAspectRatio="xMidYMid meet">
<metadata>
Created by potrace 1.15, written by Peter Selinger 2001-2017
</metadata>
<g transform="translate(0.000000,1280.000000) scale(0.100000,-0.100000)"
fill="#000000" stroke="none">
<path d="M2110 12793 c-352 -33 -538 -72 -763 -162 -381 -152 -638 -411 -725
-731 -50 -180 -54 -396 -12 -560 42 -167 148 -350 263 -456 234 -216 1026
-406 2107 -503 643 -58 516 -56 3285 -56 2669 0 2602 -1 2750 41 109 31 144
74 165 204 26 163 51 220 172 379 97 127 156 240 193 366 52 173 45 440 -15
625 -103 315 -372 564 -770 713 -516 193 -1260 194 -1985 2 -264 -70 -467
-146 -698 -260 l-148 -74 -52 33 c-232 148 -581 245 -837 233 -248 -12 -547
-105 -754 -234 l-48 -30 -152 72 c-463 223 -964 355 -1506 395 -125 9 -388 11
-470 3z m490 -954 c140 -14 308 -43 460 -80 280 -69 618 -199 612 -236 -1 -10
-10 -71 -19 -135 l-17 -118 -421 0 c-580 0 -870 19 -1152 75 -219 44 -385 109
-448 175 -24 25 -28 37 -27 85 1 71 19 93 117 140 200 96 521 130 895 94z
m5494 0 c182 -19 390 -87 453 -148 27 -26 40 -100 23 -140 -34 -83 -249 -170
-545 -220 -272 -46 -535 -61 -1077 -61 l-428 0 0 43 c0 24 -7 85 -16 136 -9
51 -14 94 -12 95 14 9 197 88 253 109 296 110 679 187 1000 200 92 4 226 -1
349 -14z"/>
<path d="M715 10039 c-349 -50 -631 -308 -699 -641 -23 -113 -23 -913 0 -1026
65 -315 315 -558 646 -626 69 -14 296 -16 2163 -16 l2085 0 0 1160 0 1160
-2067 -1 c-1138 -1 -2095 -5 -2128 -10z"/>
<path d="M5290 8890 l0 -1160 2085 0 c1867 0 2094 2 2163 16 331 68 581 311
646 626 23 113 23 913 0 1026 -50 246 -213 451 -447 563 -45 21 -118 49 -162
61 l-80 23 -2102 3 -2103 2 0 -1160z"/>
<path d="M880 3993 c0 -2173 4 -3279 10 -3321 49 -297 271 -541 585 -639 l90
-28 1673 -3 1672 -2 0 3625 0 3625 -2015 0 -2015 0 0 -3257z"/>
<path d="M5290 3625 l0 -3625 1673 2 1672 3 90 28 c283 88 482 285 567 557
l23 75 3 3293 2 3292 -2015 0 -2015 0 0 -3625z"/>
</g>
</svg>
